<?xml version="1.0" encoding="utf-8"?>
<!-- Generator: Adobe Illustrator 24.1.2, SVG Export Plug-In . SVG Version: 6.00 Build 0)  -->
<svg version="1.1" xmlns="http://www.w3.org/2000/svg" xmlns:xlink="http://www.w3.org/1999/xlink" x="0px" y="0px"
	 viewBox="0 0 208.34 83.27" style="enable-background:new 0 0 208.34 83.27;" xml:space="preserve">
<g id="P">
	<g>
		<path d="M18.02,66.09V31.57H9.48V15.92l10.6-8.13h35.62v3.08L58.7,8.4l8.82,3.62l-2.53,6.29l5.95-2.53l3.69,9.09l-4.31,3.35
			l4.31,1.85l-3.83,8.75l-3.76,3.01l0.48,1.09l-10.32,7.93l-9.02,4.44l-1.37-2.8v5.33l-10.25,8.27H18.02z M18.02,29.79V17.56h-6.9
			v12.24H18.02z M26.5,29.79V17.56h-6.84v12.24H26.5z M35.18,36.77v-5.2H19.66v5.2H35.18z M35.18,43.74v-5.33H19.66v5.33H35.18z
			 M35.18,50.51v-5.2H19.66v5.2H35.18z M35.18,57.55v-5.33H19.66v5.33H35.18z M35.18,64.59v-5.33H19.66v5.33H35.18z M35.18,29.79
			V17.56h-6.9v12.24H35.18z M43.72,54.2V43.19l4.92,9.91l6.43-3.14l-4.03-8.13l8.34,3.42l2.53-6.22l-7.79-3.28l7.93-3.62l-2.53-6.15
			l-8.48,3.76l3.83-8.48l-6.08-2.94l-5.06,10.6V17.56h-6.9v12.24H44c1.41,0.27,2.55,1,3.42,2.19c1.09,1.23,1.57,2.73,1.44,4.51
			c-0.23,1.46-0.87,2.71-1.91,3.76c-0.91,0.91-1.94,1.44-3.08,1.57h-7.04V54.2H43.72z"/>
	</g>
</g>
<g id="E">
	<path d="M78.38,66.09V15.92l11.07-8.13h43.68v15.04l-8.48,6.7v10.73l-2.87,2.19h11.35v15.11l-11.01,8.54H78.38z M95.4,22.89v-5.33
		H80.02v5.33H95.4z M95.4,29.79v-5.26H80.02v5.26H95.4z M95.4,36.77v-5.2H80.02v5.2H95.4z M95.4,38.41H80.02v5.33H95.4V38.41z
		 M95.4,50.51v-5.2H80.02v5.2H95.4z M95.4,52.22H80.02v5.33H95.4V52.22z M95.4,59.26H80.02v5.33H95.4V59.26z M104.09,29.79V17.56
		h-6.9v12.24H104.09z M104.09,47.16V34.99h-6.9v12.17H104.09z M104.09,64.59V52.22h-6.9v12.37H104.09z M112.63,29.79V17.56h-6.9
		v12.24H112.63z M112.63,47.16V34.99h-6.9v12.17H112.63z M112.63,64.59V52.22h-6.9v12.37H112.63z M121.18,29.79V17.56h-6.9v12.24
		H121.18z M121.18,64.59V52.22h-6.9v12.37H121.18z"/>
</g>
<g id="Z">
	<path d="M182.49,66.09h-43.89V37.11l7.38-5.54h-7.38V15.99l10.6-8.2h44.16V36.7l-7.11,5.61h7.11v15.24L182.49,66.09z M140.25,29.79
		h6.9V17.56h-6.9V29.79z M140.25,50.51h6.9v-12.1h-6.9V50.51z M140.25,64.59h6.9V52.22h-6.9V64.59z M148.79,29.79h6.84V17.56h-6.84
		V29.79z M148.79,48.87h6.84v-12.1h-6.84V48.87z M148.79,64.59h6.84V52.22h-6.84V64.59z M157.41,29.79h6.9V17.56h-6.9V29.79z
		 M157.41,47.09h6.9v-12.1h-6.9V47.09z M157.41,64.59h6.9V52.22h-6.9V64.59z M165.95,29.79h6.9V17.56h-6.9V29.79z M165.95,45.31h6.9
		V33.28h-6.9V45.31z M165.95,64.59h6.9V52.22h-6.9V64.59z M174.5,29.79h6.9V17.56h-6.9V29.79z M174.5,43.74h6.9V31.57h-6.9V43.74z
		 M174.5,64.59h6.9V52.22h-6.9V64.59z"/>
</g>
</svg>
