<?xml version="1.0" encoding="utf-8"?>
<!-- Generator: Adobe Illustrator 24.1.2, SVG Export Plug-In . SVG Version: 6.00 Build 0)  -->
<svg version="1.0" id="Laag_1" xmlns="http://www.w3.org/2000/svg" xmlns:xlink="http://www.w3.org/1999/xlink" x="0px" y="0px"
	 width="125.9px" height="125.9px" viewBox="0 0 125.9 125.9" style="enable-background:new 0 0 125.9 125.9;" xml:space="preserve"
	>
<style type="text/css">
	.st0{fill:none;stroke:#EDEDED;stroke-width:2;stroke-linecap:round;stroke-linejoin:round;stroke-miterlimit:10;}
</style>
<polygon class="st0" points="95.9,49.3 82.3,43.6 76.6,29.9 62.9,35.6 49.3,29.9 43.6,43.6 29.9,49.3 35.6,62.9 29.9,76.6 
	43.6,82.3 49.3,95.9 62.9,90.3 76.6,95.9 82.3,82.3 95.9,76.6 90.3,62.9 "/>
<line class="st0" x1="62.9" y1="124.9" x2="62.9" y2="1"/>
<polyline class="st0" points="50.4,9.1 62.9,14.3 75.5,9.1 "/>
<polyline class="st0" points="50.4,18.9 62.9,24.1 75.5,18.9 "/>
<polyline class="st0" points="50.4,116.7 62.9,111.5 75.5,116.7 "/>
<polyline class="st0" points="50.4,106.6 62.9,101.4 75.5,106.6 "/>
<line class="st0" x1="1" y1="62.9" x2="124.9" y2="62.9"/>
<polyline class="st0" points="116.7,50.4 111.5,62.9 116.7,75.5 "/>
<polyline class="st0" points="108.3,50.4 103.1,62.9 108.3,75.5 "/>
<polyline class="st0" points="9.1,50.4 14.3,62.9 9.1,75.5 "/>
<line class="st0" x1="19.1" y1="106.7" x2="106.7" y2="19.1"/>
<polyline class="st0" points="92.1,16 97.3,28.6 109.9,33.8 "/>
<polyline class="st0" points="85.1,23 90.3,35.6 102.9,40.8 "/>
<polyline class="st0" points="16,92.1 28.6,97.3 33.8,109.9 "/>
<polyline class="st0" points="23.3,84.8 35.9,90 41.1,102.5 "/>
<line class="st0" x1="106.7" y1="106.7" x2="19.1" y2="19.1"/>
<polyline class="st0" points="16,33.8 28.6,28.6 33.8,16 "/>
<polyline class="st0" points="22.6,40.3 35.1,35.1 40.3,22.6 "/>
<polyline class="st0" points="19.5,50.4 24.7,62.9 19.5,75.5 "/>
<polyline class="st0" points="92.1,109.9 97.3,97.3 109.9,92.1 "/>
<polyline class="st0" points="85.6,103.4 90.8,90.8 103.4,85.6 "/>
</svg>
